# xmcd
#
# Track frame offsets: 
#        150
#        13155
#        39082
#        60410
#        79550
#        101445
#        120022
#        139758
#        160033
#        181669
#
# Disc length: 3494 seconds
#
# Revision: 0
# Processed by: cddbd v1.5PL3 Copyright (c) Steve Scherf et al.
# Submitted via: ExactAudioCopy v0.95a3
#
DISCID=620da40a
DTITLE=Various Artist - 重装上阵
DYEAR=1900
DGENRE=A Cappella
TTITLE0=INTR
TTITLE1=周传雄－贡昏
TTITLE2=王菲－将爱
TTITLE3=王力宏－爱你等于爱自己
TTITLE4=温岚－北斗星
TTITLE5=阿杜－天蝎蝴蝶
TTITLE6=S.H.E　SUPER　STAR
TTITLE7=许慧欣－孤单芭蕾
TTITLE8=MP4＆张茵－什么是恋爱
TTITLE9=舞曲串烧
EXTD=
EXTT0=
EXTT1=
EXTT2=
EXTT3=
EXTT4=
EXTT5=
EXTT6=
EXTT7=
EXTT8=
EXTT9=
PLAYORDER=
